<?xml version="1.0" standalone="no"?><!DOCTYPE svg PUBLIC "-//W3C//DTD SVG 1.1//EN" "http://www.w3.org/Graphics/SVG/1.1/DTD/svg11.dtd"><svg t="1556013848506" class="icon" style="" viewBox="0 0 1024 1024" version="1.1" xmlns="http://www.w3.org/2000/svg" p-id="2070" xmlns:xlink="http://www.w3.org/1999/xlink" width="200" height="200"><defs><style type="text/css"></style></defs><path d="M224 800h-64a256.032 256.032 0 0 1 149.28-232.768 160 160 0 1 1 213.408 0A256.032 256.032 0 0 1 672 800h-64a192 192 0 1 0-384 0z m608 96h64.288A64.128 64.128 0 0 0 960 831.84V192.16A63.936 63.936 0 0 0 896.288 128H127.68A64.128 64.128 0 0 0 64 192.16v639.68C64 867.296 92.544 896 127.712 896H128V223.744A31.872 31.872 0 0 1 160 192h704c17.664 0 32 14.56 32 31.744v576.512A31.872 31.872 0 0 1 864 832h-32v64zM415.936 544a96 96 0 1 0 0-192 96 96 0 0 0 0 192zM640 480c0-17.664 14.016-32 32.096-32h159.808A31.968 31.968 0 0 1 864 480c0 17.664-14.016 32-32.096 32H672.096A31.968 31.968 0 0 1 640 480zM128 832h704v64H128v-64z m512-224c0-17.664 14.208-32 32-32h96c17.664 0 32 14.208 32 32 0 17.664-14.208 32-32 32h-96c-17.664 0-32-14.208-32-32z" p-id="2071" fill="#1296db"></path></svg>